<?xml version="1.0" encoding="utf-8"?>
<!-- Generator: Adobe Illustrator 16.0.4, SVG Export Plug-In . SVG Version: 6.00 Build 0)  -->
<!DOCTYPE svg PUBLIC "-//W3C//DTD SVG 1.1//EN" "http://www.w3.org/Graphics/SVG/1.1/DTD/svg11.dtd">
<svg version="1.1" id="Capa_1" xmlns="http://www.w3.org/2000/svg" xmlns:xlink="http://www.w3.org/1999/xlink" x="0px" y="0px"
	 width="100px" height="100px" viewBox="0 0 100 100" enable-background="new 0 0 100 100" xml:space="preserve">
<g>
	<path fill="#020202" d="M79.324,57.213L65.507,43.396v-9.112c0-1.136-0.921-2.056-2.056-2.056c-1.137,0-2.057,0.92-2.057,2.056
		v5.001l-9.748-9.748c-0.801-0.803-2.104-0.803-2.905,0L21.064,57.213c-0.803,0.803-0.803,2.104,0,2.907
		c0.802,0.803,2.104,0.803,2.907,0l26.223-26.223L76.417,60.12c0.401,0.399,0.929,0.603,1.455,0.603
		c0.522,0,1.051-0.201,1.452-0.603C80.127,59.316,80.127,58.016,79.324,57.213z"/>
	<path fill="#020202" d="M73.441,59.572L51.646,37.776c-0.385-0.385-0.908-0.602-1.454-0.602c-0.545,0-1.068,0.217-1.453,0.602
		L26.946,59.572c-0.291,0.289-0.487,0.66-0.565,1.062c-0.061,0.314-0.091,0.633-0.091,0.942v10.638c0,2.739,2.229,4.971,4.969,4.971
		h10.637c1.378,0,2.707-0.582,3.645-1.599c0.854-0.923,1.324-2.12,1.324-3.373v-7.812c0-1.896,1.453-3.48,3.33-3.658
		c1.878,0.178,3.331,1.762,3.331,3.658v7.812c0,1.252,0.472,2.45,1.324,3.373c0.938,1.017,2.269,1.599,3.646,1.599h10.638
		c2.74,0,4.97-2.229,4.97-4.972V61.579c0-0.312-0.031-0.63-0.092-0.942C73.932,60.232,73.732,59.861,73.441,59.572z"/>
</g>
</svg>
